<svg width="16" height="16" viewBox="0 0 16 16" fill="none" xmlns="http://www.w3.org/2000/svg">
<rect width="16" height="16" fill="#F5F5F5"/>
<g clip-path="url(#clip0_0_1)">
<rect width="411" height="858" transform="translate(-151 -145)" fill="#242425"/>
<g filter="url(#filter0_d_0_1)">
<rect x="-129" y="-9" width="368" height="130" rx="16" fill="url(#paint0_linear_0_1)"/>
<rect x="-128.5" y="-8.5" width="367" height="129" rx="15.5" stroke="#CFEF2E"/>
</g>
<path d="M8 14.6667C11.6819 14.6667 14.6667 11.6819 14.6667 8.00001C14.6667 4.31811 11.6819 1.33334 8 1.33334C4.3181 1.33334 1.33333 4.31811 1.33333 8.00001C1.33333 11.6819 4.3181 14.6667 8 14.6667Z" stroke="white" stroke-opacity="0.6" stroke-linecap="round" stroke-linejoin="round"/>
<path d="M8 5.33334V8.00001" stroke="white" stroke-opacity="0.6" stroke-linecap="round" stroke-linejoin="round"/>
<path d="M8 10.6667H8.00667" stroke="white" stroke-opacity="0.6" stroke-linecap="round" stroke-linejoin="round"/>
</g>
<defs>
<filter id="filter0_d_0_1" x="-133" y="-9" width="376" height="138" filterUnits="userSpaceOnUse" color-interpolation-filters="sRGB">
<feFlood flood-opacity="0" result="BackgroundImageFix"/>
<feColorMatrix in="SourceAlpha" type="matrix" values="0 0 0 0 0 0 0 0 0 0 0 0 0 0 0 0 0 0 127 0" result="hardAlpha"/>
<feOffset dy="4"/>
<feGaussianBlur stdDeviation="2"/>
<feComposite in2="hardAlpha" operator="out"/>
<feColorMatrix type="matrix" values="0 0 0 0 0 0 0 0 0 0 0 0 0 0 0 0 0 0 0.25 0"/>
<feBlend mode="normal" in2="BackgroundImageFix" result="effect1_dropShadow_0_1"/>
<feBlend mode="normal" in="SourceGraphic" in2="effect1_dropShadow_0_1" result="shape"/>
</filter>
<linearGradient id="paint0_linear_0_1" x1="-46.9003" y1="-166.523" x2="174.199" y2="249.329" gradientUnits="userSpaceOnUse">
<stop stop-color="#33383D"/>
<stop offset="1" stop-color="#1C1E21"/>
</linearGradient>
<clipPath id="clip0_0_1">
<rect width="411" height="858" fill="white" transform="translate(-151 -145)"/>
</clipPath>
</defs>
</svg>
