<svg width="34" height="43" viewBox="0 0 34 43" fill="none" xmlns="http://www.w3.org/2000/svg">
<rect x="0.736541" y="19" width="23" height="23" transform="rotate(-45 0.736541 19)" fill="#333333" stroke="#828282"/>
<path d="M15.8961 10.3714L17 1H10.25L8 17.4H18.5L14 42L26 10.3714H15.8961Z" fill="#4F4F4F" stroke="#828282"/>
<path d="M19.675 12.4L11.665 25H9.36104L6.39104 12.4H8.80304L11.053 22.084L17.245 12.4H19.675ZM22.6246 25.18C21.6526 25.18 20.7226 25.042 19.8346 24.766C18.9466 24.49 18.2506 24.136 17.7466 23.704L18.7366 21.868C19.2646 22.288 19.8886 22.624 20.6086 22.876C21.3406 23.116 22.0846 23.236 22.8406 23.236C23.7646 23.236 24.4966 23.08 25.0366 22.768C25.5886 22.444 25.8646 22.006 25.8646 21.454C25.8646 21.142 25.7506 20.884 25.5226 20.68C25.3066 20.464 25.0306 20.29 24.6946 20.158C24.3706 20.026 23.9146 19.876 23.3266 19.708C22.5106 19.468 21.8506 19.24 21.3466 19.024C20.8426 18.796 20.4106 18.46 20.0506 18.016C19.6906 17.572 19.5106 16.996 19.5106 16.288C19.5106 15.472 19.7386 14.758 20.1946 14.146C20.6626 13.534 21.3106 13.06 22.1386 12.724C22.9666 12.388 23.9206 12.22 25.0006 12.22C25.8166 12.22 26.5906 12.316 27.3226 12.508C28.0546 12.688 28.6846 12.946 29.2126 13.282L28.2946 15.136C27.8266 14.824 27.2986 14.584 26.7106 14.416C26.1226 14.248 25.5106 14.164 24.8746 14.164C23.9386 14.164 23.1946 14.338 22.6426 14.686C22.1026 15.022 21.8326 15.472 21.8326 16.036C21.8326 16.36 21.9466 16.63 22.1746 16.846C22.4026 17.062 22.6786 17.236 23.0026 17.368C23.3266 17.488 23.8006 17.644 24.4246 17.836C25.2166 18.064 25.8646 18.286 26.3686 18.502C26.8726 18.718 27.2986 19.036 27.6466 19.456C28.0066 19.876 28.1866 20.422 28.1866 21.094C28.1866 21.922 27.9526 22.642 27.4846 23.254C27.0286 23.866 26.3746 24.34 25.5226 24.676C24.6826 25.012 23.7166 25.18 22.6246 25.18Z" fill="#F9E400"/>
</svg>
